<svg width="220" height="23" viewBox="0 0 220 23" fill="none" xmlns="http://www.w3.org/2000/svg">
<path d="M0.56 0.912H5.96C8.6 0.912 10.656 1.672 12.128 3.192C13.584 4.696 14.312 6.784 14.312 9.456C14.312 12.112 13.576 14.2 12.104 15.72C10.616 17.24 8.528 18 5.84 18H0.56V0.912ZM1.976 16.704H5.84C8.112 16.704 9.84 16.072 11.024 14.808C12.224 13.544 12.824 11.76 12.824 9.456C12.824 7.152 12.232 5.368 11.048 4.104C9.88 2.84 8.184 2.208 5.96 2.208H1.976V16.704ZM27.2656 11.784V12.264H17.5456C17.6096 13.8 18.0096 14.984 18.7456 15.816C19.4976 16.632 20.5216 17.04 21.8176 17.04C22.8096 17.04 23.6336 16.776 24.2896 16.248C24.9456 15.704 25.3776 14.968 25.5856 14.04H27.0016C26.7136 15.352 26.1136 16.392 25.2016 17.16C24.2896 17.912 23.1456 18.288 21.7696 18.288C20.0416 18.288 18.6736 17.696 17.6656 16.512C16.6576 15.328 16.1536 13.76 16.1536 11.808C16.1536 9.872 16.6576 8.304 17.6656 7.104C18.6576 5.92 20.0096 5.328 21.7216 5.328C23.4656 5.328 24.8256 5.936 25.8016 7.152C26.7776 8.368 27.2656 9.912 27.2656 11.784ZM21.7216 6.576C20.5376 6.576 19.5776 6.968 18.8416 7.752C18.1056 8.536 17.6816 9.632 17.5696 11.04H25.8016C25.7216 9.68 25.3216 8.6 24.6016 7.8C23.8976 6.984 22.9376 6.576 21.7216 6.576ZM35.3808 5.328C37.0768 5.328 38.4448 5.92 39.4848 7.104C40.4928 8.288 40.9968 9.856 40.9968 11.808C40.9968 13.76 40.4928 15.328 39.4848 16.512C38.4448 17.696 37.0768 18.288 35.3808 18.288C33.3168 18.288 31.8128 17.384 30.8688 15.576V18H29.5728V0.912H30.9408V7.896C31.8848 6.184 33.3648 5.328 35.3808 5.328ZM32.0448 15.648C32.8448 16.592 33.9008 17.064 35.2128 17.064C36.5568 17.064 37.6208 16.576 38.4048 15.6C39.1888 14.656 39.5808 13.368 39.5808 11.736C39.5808 10.136 39.1808 8.872 38.3808 7.944C37.5968 7.016 36.5408 6.552 35.2128 6.552C33.9008 6.552 32.8448 7.024 32.0448 7.968C31.2608 8.896 30.8688 10.176 30.8688 11.808C30.8688 13.44 31.2608 14.72 32.0448 15.648ZM53.8906 11.784V12.264H44.1706C44.2346 13.8 44.6346 14.984 45.3706 15.816C46.1226 16.632 47.1466 17.04 48.4426 17.04C49.4346 17.04 50.2586 16.776 50.9146 16.248C51.5706 15.704 52.0026 14.968 52.2106 14.04H53.6266C53.3386 15.352 52.7386 16.392 51.8266 17.16C50.9146 17.912 49.7706 18.288 48.3946 18.288C46.6666 18.288 45.2986 17.696 44.2906 16.512C43.2826 15.328 42.7786 13.76 42.7786 11.808C42.7786 9.872 43.2826 8.304 44.2906 7.104C45.2826 5.92 46.6346 5.328 48.3466 5.328C50.0906 5.328 51.4506 5.936 52.4266 7.152C53.4026 8.368 53.8906 9.912 53.8906 11.784ZM48.3466 6.576C47.1626 6.576 46.2026 6.968 45.4666 7.752C44.7306 8.536 44.3066 9.632 44.1946 11.04H52.4266C52.3466 9.68 51.9466 8.6 51.2266 7.8C50.5226 6.984 49.5626 6.576 48.3466 6.576ZM61.7658 5.448C62.1178 5.448 62.3498 5.456 62.4618 5.472V6.768H61.8858C60.5258 6.768 59.4618 7.152 58.6938 7.92C57.9418 8.688 57.5658 9.736 57.5658 11.064V18H56.1978V5.616H57.4938V8.208C58.3258 6.368 59.7498 5.448 61.7658 5.448ZM65.5558 3.744H64.4277L65.8918 0.287999H67.5478L65.5558 3.744ZM65.6518 18H64.2838V5.616H65.6518V18ZM78.6299 16.896H79.2779V18C79.0059 18.048 78.7099 18.072 78.3899 18.072C77.7179 18.072 77.2299 17.912 76.9259 17.592C76.6219 17.256 76.4699 16.744 76.4699 16.056V15.888C75.6379 17.488 74.1419 18.288 71.9819 18.288C70.6539 18.288 69.6219 17.976 68.8859 17.352C68.1659 16.712 67.8059 15.84 67.8059 14.736C67.8059 12.592 69.2779 11.344 72.2219 10.992L74.1419 10.776C74.9899 10.664 75.5819 10.456 75.9179 10.152C76.2539 9.848 76.4219 9.384 76.4219 8.76C76.4219 7.256 75.3579 6.504 73.2299 6.504C71.9979 6.504 71.1019 6.72 70.5419 7.152C69.9979 7.584 69.7019 8.312 69.6539 9.336H68.3339C68.4139 6.664 70.0459 5.328 73.2299 5.328C74.7339 5.328 75.8619 5.632 76.6139 6.24C77.3659 6.832 77.7419 7.672 77.7419 8.76V16.008C77.7419 16.6 78.0379 16.896 78.6299 16.896ZM72.0539 17.136C73.2859 17.136 74.3259 16.784 75.1739 16.08C76.0059 15.392 76.4219 14.36 76.4219 12.984V11.112C76.0219 11.512 75.3339 11.768 74.3579 11.88L72.4379 12.12C71.3019 12.264 70.4779 12.544 69.9659 12.96C69.4699 13.36 69.2219 13.944 69.2219 14.712C69.2219 15.464 69.4619 16.056 69.9419 16.488C70.4219 16.92 71.1259 17.136 72.0539 17.136ZM80.7358 0.912H87.2638C89.9998 0.912 92.1118 1.672 93.5998 3.192C95.0878 4.728 95.8318 6.816 95.8318 9.456C95.8318 12.096 95.0878 14.176 93.5998 15.696C92.1118 17.232 89.9998 18 87.2638 18H80.7358V0.912ZM83.9758 15.216H87.2158C88.8958 15.216 90.1918 14.728 91.1038 13.752C92.0158 12.76 92.4718 11.328 92.4718 9.456C92.4718 7.584 92.0158 6.16 91.1038 5.184C90.1918 4.192 88.8958 3.696 87.2158 3.696H83.9758V15.216ZM109.553 12.024V12.744H100.289C100.401 13.8 100.729 14.6 101.273 15.144C101.833 15.672 102.577 15.936 103.505 15.936C104.881 15.936 105.825 15.344 106.337 14.16H109.241C108.921 15.424 108.249 16.432 107.225 17.184C106.201 17.92 104.953 18.288 103.481 18.288C101.641 18.288 100.153 17.696 99.0166 16.512C97.8806 15.328 97.3126 13.76 97.3126 11.808C97.3126 9.856 97.8726 8.288 98.9926 7.104C100.129 5.92 101.609 5.328 103.433 5.328C105.305 5.328 106.793 5.944 107.897 7.176C109.001 8.408 109.553 10.024 109.553 12.024ZM103.409 7.68C101.633 7.68 100.601 8.664 100.313 10.632H106.529C106.401 9.72 106.065 9 105.521 8.472C104.977 7.944 104.273 7.68 103.409 7.68ZM116.354 18.336C112.738 18.336 110.85 16.912 110.69 14.064H113.642C113.722 14.832 113.97 15.376 114.386 15.696C114.818 16.016 115.49 16.176 116.402 16.176C118.034 16.176 118.85 15.68 118.85 14.688C118.85 14.24 118.674 13.896 118.322 13.656C117.97 13.416 117.338 13.216 116.426 13.056L115.01 12.816C112.306 12.368 110.954 11.12 110.954 9.072C110.954 7.904 111.402 6.992 112.298 6.336C113.194 5.664 114.458 5.328 116.09 5.328C119.626 5.328 121.45 6.728 121.562 9.528H118.706C118.674 8.792 118.442 8.272 118.01 7.968C117.578 7.648 116.938 7.488 116.09 7.488C114.65 7.488 113.93 7.968 113.93 8.928C113.93 9.344 114.09 9.672 114.41 9.912C114.73 10.136 115.258 10.312 115.994 10.44L117.554 10.68C119.058 10.952 120.146 11.384 120.818 11.976C121.506 12.568 121.85 13.392 121.85 14.448C121.85 15.696 121.37 16.656 120.41 17.328C119.45 18 118.098 18.336 116.354 18.336ZM134.899 18H131.875C131.731 17.744 131.619 17.24 131.539 16.488C130.707 17.688 129.379 18.288 127.555 18.288C126.195 18.288 125.107 17.96 124.291 17.304C123.491 16.648 123.091 15.736 123.091 14.568C123.091 12.312 124.675 11.024 127.843 10.704L129.715 10.536C130.339 10.456 130.787 10.312 131.059 10.104C131.331 9.88 131.467 9.552 131.467 9.12C131.467 8.592 131.291 8.208 130.939 7.968C130.603 7.712 130.027 7.584 129.211 7.584C128.331 7.584 127.699 7.736 127.315 8.04C126.931 8.328 126.707 8.832 126.643 9.552H123.667C123.843 6.736 125.699 5.328 129.235 5.328C132.675 5.328 134.395 6.568 134.395 9.048V15.648C134.395 16.736 134.563 17.52 134.899 18ZM128.275 16.128C129.219 16.128 129.987 15.872 130.579 15.36C131.171 14.832 131.467 14.08 131.467 13.104V11.976C131.179 12.232 130.707 12.4 130.051 12.48L128.419 12.672C127.619 12.768 127.043 12.96 126.691 13.248C126.355 13.52 126.187 13.92 126.187 14.448C126.187 14.976 126.363 15.392 126.715 15.696C127.083 15.984 127.603 16.128 128.275 16.128ZM143.565 5.328C145.261 5.328 146.613 5.912 147.621 7.08C148.613 8.264 149.109 9.84 149.109 11.808C149.109 13.76 148.613 15.328 147.621 16.512C146.613 17.696 145.261 18.288 143.565 18.288C141.885 18.288 140.605 17.656 139.725 16.392V22.704H136.701V5.616H139.605V7.392C140.501 6.016 141.821 5.328 143.565 5.328ZM140.517 14.76C141.061 15.448 141.837 15.792 142.845 15.792C143.837 15.792 144.621 15.432 145.197 14.712C145.757 14.008 146.037 13.008 146.037 11.712C146.037 10.448 145.757 9.488 145.197 8.832C144.653 8.16 143.869 7.824 142.845 7.824C141.837 7.824 141.053 8.168 140.493 8.856C139.933 9.544 139.653 10.528 139.653 11.808C139.653 13.104 139.941 14.088 140.517 14.76ZM161.993 18H158.969C158.825 17.744 158.713 17.24 158.633 16.488C157.801 17.688 156.473 18.288 154.649 18.288C153.289 18.288 152.201 17.96 151.385 17.304C150.585 16.648 150.185 15.736 150.185 14.568C150.185 12.312 151.769 11.024 154.937 10.704L156.809 10.536C157.433 10.456 157.881 10.312 158.153 10.104C158.425 9.88 158.561 9.552 158.561 9.12C158.561 8.592 158.385 8.208 158.033 7.968C157.697 7.712 157.121 7.584 156.305 7.584C155.425 7.584 154.793 7.736 154.409 8.04C154.025 8.328 153.801 8.832 153.737 9.552H150.761C150.937 6.736 152.793 5.328 156.329 5.328C159.769 5.328 161.489 6.568 161.489 9.048V15.648C161.489 16.736 161.657 17.52 161.993 18ZM155.369 16.128C156.313 16.128 157.081 15.872 157.673 15.36C158.265 14.832 158.561 14.08 158.561 13.104V11.976C158.273 12.232 157.801 12.4 157.145 12.48L155.513 12.672C154.713 12.768 154.137 12.96 153.785 13.248C153.449 13.52 153.281 13.92 153.281 14.448C153.281 14.976 153.457 15.392 153.809 15.696C154.177 15.984 154.697 16.128 155.369 16.128ZM170.418 5.424C170.69 5.424 170.938 5.44 171.162 5.472V8.256H170.394C169.242 8.256 168.354 8.552 167.73 9.144C167.122 9.72 166.818 10.576 166.818 11.712V18H163.794V5.616H166.722V7.824C167.41 6.224 168.642 5.424 170.418 5.424ZM183.92 12.024V12.744H174.656C174.768 13.8 175.096 14.6 175.64 15.144C176.2 15.672 176.944 15.936 177.872 15.936C179.248 15.936 180.192 15.344 180.704 14.16H183.608C183.288 15.424 182.616 16.432 181.592 17.184C180.568 17.92 179.32 18.288 177.848 18.288C176.008 18.288 174.52 17.696 173.384 16.512C172.248 15.328 171.68 13.76 171.68 11.808C171.68 9.856 172.24 8.288 173.36 7.104C174.496 5.92 175.976 5.328 177.8 5.328C179.672 5.328 181.16 5.944 182.264 7.176C183.368 8.408 183.92 10.024 183.92 12.024ZM177.776 7.68C176 7.68 174.968 8.664 174.68 10.632H180.896C180.768 9.72 180.432 9 179.888 8.472C179.344 7.944 178.64 7.68 177.776 7.68ZM191.44 18.288C189.616 18.288 188.136 17.696 187 16.512C185.88 15.344 185.32 13.776 185.32 11.808C185.32 9.824 185.88 8.248 187 7.08C188.104 5.912 189.584 5.328 191.44 5.328C193.056 5.328 194.376 5.76 195.4 6.624C196.424 7.472 197.024 8.624 197.2 10.08H194.176C194.032 9.36 193.72 8.808 193.24 8.424C192.76 8.04 192.16 7.848 191.44 7.848C190.496 7.848 189.752 8.192 189.208 8.88C188.68 9.552 188.416 10.528 188.416 11.808C188.416 13.088 188.688 14.072 189.232 14.76C189.776 15.432 190.512 15.768 191.44 15.768C192.176 15.768 192.792 15.568 193.288 15.168C193.8 14.752 194.112 14.16 194.224 13.392H197.248C197.088 14.88 196.48 16.072 195.424 16.968C194.368 17.848 193.04 18.288 191.44 18.288ZM210.639 12.024V12.744H201.375C201.487 13.8 201.815 14.6 202.359 15.144C202.919 15.672 203.663 15.936 204.591 15.936C205.967 15.936 206.911 15.344 207.423 14.16H210.327C210.007 15.424 209.335 16.432 208.311 17.184C207.287 17.92 206.039 18.288 204.567 18.288C202.727 18.288 201.239 17.696 200.103 16.512C198.967 15.328 198.399 13.76 198.399 11.808C198.399 9.856 198.959 8.288 200.079 7.104C201.215 5.92 202.695 5.328 204.519 5.328C206.391 5.328 207.879 5.944 208.983 7.176C210.087 8.408 210.639 10.024 210.639 12.024ZM204.495 7.68C202.719 7.68 201.687 8.664 201.399 10.632H207.615C207.487 9.72 207.151 9 206.607 8.472C206.063 7.944 205.359 7.68 204.495 7.68ZM219.215 5.424C219.487 5.424 219.735 5.44 219.959 5.472V8.256H219.191C218.039 8.256 217.151 8.552 216.527 9.144C215.919 9.72 215.615 10.576 215.615 11.712V18H212.591V5.616H215.519V7.824C216.207 6.224 217.439 5.424 219.215 5.424Z" fill="white"/>
</svg>
